PathFileType	4	(X/Y/Z)	/mnt/D494C4CF94C4B4F0/Trampoline_predictions/poses3d/1_partie_0429.trc
DataRate	CameraRate	NumFrames	NumMarkers	Units	OrigDataRate	OrigDataStartFrame	OrigNumFrames
120	120	4	17	m	120	654	1746
Frame#	Time	Nose			L Eye			R Eye			L Ear			R Ear			L Shoulder			R Shoulder			L Elbow			R Elbow			L Wrist			R Wrist			L Hip			R Hip			L Knee			R Knee			L Ankle			R Ankle			
		X1	Y1	Z1	X2	Y2	Z2	X3	Y3	Z3	X4	Y4	Z4	X5	Y5	Z5	X6	Y6	Z6	X7	Y7	Z7	X8	Y8	Z8	X9	Y9	Z9	X10	Y10	Z10	X11	Y11	Z11	X12	Y12	Z12	X13	Y13	Z13	X14	Y14	Z14	X15	Y15	Z15	X16	Y16	Z16	X17	Y17	Z17	
654	5.45	0.25565440218426433	0.07697131290966151	5.413440742834288	0.3012569427898053	0.09615203015276846	5.413629766404098	0.2630564585179425	0.11524780635630684	5.422813587262372	0.35729138700355456	0.12187767772850391	5.364694995352812	0.26448241197805605	0.1819006162701674	5.385099719558178	0.3584225216405595	0.03764076134934998	5.193772411658863	0.11975313975151304	0.20420894184476898	5.2575199146889755	0.2674909172172946	-0.06345327391004922	4.99719574698848	-0.04044621684998244	0.1312080908130299	5.088976176352899	0.13041885147442445	-0.14983118661151465	4.851066808017405	-0.19719846614740968	0.07202068951356262	4.919359594229899	0.0500485240563558	-0.08166273842112164	4.880530358510711	-0.05939359482998828	0.016118776353487466	4.91558367982865	-0.20838673459113072	-0.19899116050478025	4.608855698321	-0.26665976599395064	-0.12687159409104024	4.6148116070705	-0.3970399706938352	-0.24903730926851808	4.303019773295862	-0.42243483376327073	-0.20869256900048144	4.319199566675527
655	5.458333333333	0.2892930407287166	0.08171457754673744	5.397344541595997	0.3372980989166337	0.10486733693096582	5.394756028390316	0.29492342721136766	0.11786571219893019	5.407796475611752	0.38722434450412346	0.13996011776301004	5.3396667829581	0.2870028884447209	0.18428089716845028	5.370265241034984	0.37508214822918867	0.06713173291701326	5.172844943462778	0.12243325626830726	0.19797824089367957	5.251740387024731	0.2909367569886076	-0.0511423281297952	4.974479604898267	-0.04443945404572198	0.13310337202489453	5.107377406560343	0.1319937812148957	-0.14916613071454995	4.821026863471491	-0.19833774844824617	0.035563736259586344	4.9388062212140085	0.06238532251839696	-0.07440652345502138	4.881054223386987	-0.053884609203399166	0.012631938500587992	4.93053361988978	-0.2122824709417274	-0.1869486073855553	4.629948230415087	-0.2752791528750329	-0.12340865433819302	4.6624287063121015	-0.4173263426013878	-0.23547511043790123	4.337398560462908	-0.45316771503832753	-0.20262723698292048	4.359942752966658
656	5.466666666667	0.3047781271576566	0.10977237268512849	5.381579064245648	0.35893701211680756	0.1213371937961472	5.373828208597606	0.31257777201312137	0.14132367010561436	5.396629779998301	0.40772536632120077	0.15774926800996802	5.324394948991139	0.3093516281825673	0.19289097143361827	5.362540823100973	0.39417315323328944	0.09040331884033566	5.154002319151901	0.15386800871930473	0.19171096949737962	5.258656367434446	0.29849535279911077	-0.0063555162845199105	4.9510500776830675	-0.014451814446230133	0.12515112935053446	5.1237183348361794	0.1455186316369242	-0.14600548326326432	4.801514523625699	-0.182239540467612	0.0216231597431558	4.971280587951512	0.06422746206556035	-0.04370611753911372	4.886231828811844	-0.05484304513010612	0.029977359662280663	4.954869716607942	-0.21799748142827335	-0.1788867480177402	4.638081264725217	-0.2878795599760256	-0.11616948229154325	4.690803752004277	-0.4503339510668215	-0.2311410270991702	4.363344388286985	-0.4910378322455413	-0.19714398893787663	4.392707306180335
657	5.475	0.33431422128433885	0.11140991215815094	5.356615591477766	0.38243169148581146	0.13052739841421876	5.352297083163975	0.3400132955275935	0.14597419006064782	5.374778373966305	0.42219594563792273	0.17338056234026536	5.306005509672016	0.32834966670285276	0.1938923186438593	5.345696697740562	0.4099435799204338	0.10367889145741535	5.130134251814849	0.173114707398859	0.20031072248265425	5.26352974412675	0.3121934496647273	-0.004012242971979717	4.928304561954104	-0.015052657994757123	0.12504399873715843	5.128382355210206	0.15006161120723352	-0.1262908884334786	4.792454881196325	-0.1808613512120221	0.026144246124674662	4.988548624379801	0.056148437889275045	-0.03233802027484225	4.892151044932192	-0.05114144293864711	0.02712686771806692	4.97175275809169	-0.22519102927227116	-0.16724310438829765	4.656847491917663	-0.29833025201804597	-0.10524505694141514	4.7276987124575705	-0.4667361365510159	-0.23091607750675677	4.388599465384384	-0.5248382593265833	-0.20508709184525556	4.429671635275012
